<?xml version="1.0" encoding="UTF-8" standalone="no"?>
<svg width="400px" height="52px" viewBox="0 0 400 52" version="1.1" xmlns="http://www.w3.org/2000/svg" xmlns:xlink="http://www.w3.org/1999/xlink">
    <!-- Generator: Sketch 49.1 (51147) - http://www.bohemiancoding.com/sketch -->
    <title>Combined Shape</title>
    <desc>Created with Sketch.</desc>
    <defs></defs>
    <g id="Page-1" stroke="none" stroke-width="1" fill="none" fill-rule="evenodd">
        <path d="M397.533909,49.378652 L397.533909,2.34548597 L392.601726,2.34548597 L392.601726,0 L397.533909,0 L400,0 L400,51.7241379 L397.533909,51.7241379 L392.601726,51.7241379 L392.601726,49.378652 L397.533909,49.378652 Z M288.25828,2.34548597 L288.25828,49.378652 L288.25828,51.7241379 L263.423699,51.7241379 L260.940241,51.7241379 L260.940241,0 L263.423699,0 L288.25828,0 L288.25828,2.34548597 Z M285.774822,2.34548597 L263.423699,2.34548597 L263.423699,49.378652 L285.774822,49.378652 L285.774822,2.34548597 Z M337.682448,24.689326 L360.032117,24.689326 L360.032117,2.34548597 L355.27127,2.34548597 L355.27127,0 L367.694205,0 L367.694205,2.34548597 L362.515413,2.34548597 L362.515413,24.689326 L362.762022,24.689326 L362.762022,27.0348119 L350.09893,27.0348119 L350.09893,49.378652 L355.27127,49.378652 L355.27127,51.7241379 L342.848335,51.7241379 L342.848335,49.378652 L347.615634,49.378652 L347.615634,27.0348119 L335.443983,27.0348119 L335.443983,26.9113653 L335.199151,26.9113653 L335.199151,2.34548597 L325.265965,2.34548597 L325.265965,49.378652 L325.456227,49.378652 L325.456227,51.7241379 L310.548705,51.7241379 L310.366186,51.7241379 L310.366186,2.34548597 L300.433,2.34548597 L300.433,49.378652 L300.610358,49.378652 L300.610358,51.7241379 L293.156597,51.7241379 L293.156597,49.378652 L297.949703,49.378652 L297.949703,0 L298.125771,0 L313.033292,0 L313.033292,2.34548597 L312.849482,2.34548597 L312.849482,49.378652 L322.782669,49.378652 L322.782669,0 L322.97164,0 L342.848335,0 L342.848335,2.34548597 L337.682448,2.34548597 L337.682448,24.689326 Z M250.767069,27.0348119 L250.767069,49.378652 L255.887793,49.378652 L255.887793,51.7241379 L243.464858,51.7241379 L243.464858,49.378652 L248.283773,49.378652 L248.283773,27.0348119 L225.934104,27.0348119 L225.934104,49.378652 L231.041924,49.378652 L231.041924,51.7241379 L218.618989,51.7241379 L218.618989,49.378652 L223.450807,49.378652 L223.450807,2.34548597 L218.618989,2.34548597 L218.618989,0 L231.041924,0 L231.041924,2.34548597 L225.934104,2.34548597 L225.934104,24.689326 L248.283773,24.689326 L248.283773,2.34548597 L243.464858,2.34548597 L243.464858,0 L255.887793,0 L255.887793,2.34548597 L250.767069,2.34548597 L250.767069,24.689326 L251.006408,24.689326 L251.006408,27.0348119 L250.767069,27.0348119 Z M188.684656,24.689326 L211.034325,24.689326 L211.034325,2.34548597 L188.684656,2.34548597 L188.684656,24.689326 Z M188.684656,27.0348119 L188.684656,49.378652 L193.77312,49.378652 L193.77312,51.7241379 L181.350185,51.7241379 L181.350185,49.378652 L186.201359,49.378652 L186.201359,0 L188.684656,0 L213.754537,0 L213.754537,2.34548597 L213.517621,2.34548597 L213.517621,24.689326 L213.754537,24.689326 L213.754537,27.0348119 L188.684656,27.0348119 Z M176.268173,2.34548597 L176.268173,49.378652 L176.268173,51.7241379 L151.435208,51.7241379 L148.951911,51.7241379 L148.951911,0 L151.435208,0 L176.268173,0 L176.268173,2.34548597 Z M173.784877,2.34548597 L151.435208,2.34548597 L151.435208,49.378652 L173.784877,49.378652 L173.784877,2.34548597 Z M136.62762,2.34548597 L114.266338,2.34548597 L114.266338,49.378652 L136.62762,49.378652 L136.62762,35.1822895 L139.112207,35.1822895 L139.112207,49.378652 L139.112207,51.7241379 L114.266338,51.7241379 L111.781751,51.7241379 L111.781751,0 L114.266338,0 L139.112207,0 L139.112207,2.34548597 L139.112207,16.5418484 L136.62762,16.5418484 L136.62762,2.34548597 Z M99.3588163,49.378652 L99.3588163,27.0348119 L76.9975339,27.0348119 L76.9975339,49.378652 L81.9667078,49.378652 L81.9667078,51.7241379 L69.5437731,51.7241379 L69.5437731,49.378652 L74.512947,49.378652 L74.512947,0 L76.9975339,0 L99.3588163,0 L101.843403,0 L101.843403,49.378652 L106.812577,49.378652 L106.812577,51.7241379 L94.3896424,51.7241379 L94.3896424,49.378652 L99.3588163,49.378652 Z M76.9975339,24.689326 L99.3588163,24.689326 L99.3588163,2.34548597 L76.9975339,2.34548597 L76.9975339,24.689326 Z M62.1230804,2.34548597 L39.7264881,2.34548597 L39.7264881,49.378652 L62.1230804,49.378652 L62.1230804,35.1822895 L64.6115906,35.1822895 L64.6115906,49.378652 L64.6115906,51.7241379 L39.7264881,51.7241379 L37.2379778,51.7241379 L37.2379778,0 L39.7264881,0 L64.6115906,0 L64.6115906,2.34548597 L64.6115906,16.5418484 L62.1230804,16.5418484 L62.1230804,2.34548597 Z M2.46609125,51.7241379 L0,51.7241379 L0,0 L2.46609125,0 L7.39827374,0 L7.39827374,2.34548597 L2.46609125,2.34548597 L2.46609125,49.378652 L7.39827374,49.378652 L7.39827374,51.7241379 L2.46609125,51.7241379 Z" id="Combined-Shape" fill="#24292E"></path>
    </g>
</svg>